PathFileType	4	(X/Y/Z)	C:/Users/beibeiliu/ov580/test_trc/User3\out2_training_dense_left.trc
DataRate	CameraRate	NumFrames	NumMarkers	Units	OrigDataRate	OrigDataStartFrame	OrigNumFrames
120	120	12	19	mm	120	63	500
Frame#	Time	ThumbCMC			ThumbMCP			ThumbIP			ThumbTip			IndexMCP			IndexPIP			IndexTip			MiddleMCP			MiddlePIP			MiddleTip			RingMCP			RingPIP			RingTip			PinkyMCP			PinkyPIP			PinkyTip			BackHand1			BackHand2			BackHand3	
		X0	Y0	Z0	X1	Y1	Z1	X2	Y2	Z2	X3	Y3	Z3	X4	Y4	Z4	X5	Y5	Z5	X6	Y6	Z6	X7	Y7	Z7	X8	Y8	Z8	X9	Y9	Z9	X10	Y10	Z10	X11	Y11	Z11	X12	Y12	Z12	X13	Y13	Z13	X14	Y14	Z14	X15	Y15	Z15	X16	Y16	Z16	X17	Y17	Z17	X18	Y18	Z18	
62	0.516667	-225.247	15.9073	13.5339	-223.506	36.6337	-16.3223	-209.084	48.3544	-36.2581	-179.515	44.7351	-43.9148	-196.356	3.64027	-61.475	-187.424	33.0786	-68.9119	-190.291	38.7934	-33.2964	-177.678	0.921603	-60.6083	-169.433	33.7122	-59.1399	-174.385	29.8359	-21.3492	-156.871	1.79007	-47.3228	-153.295	30.7934	-43.1057	-167.177	25.3026	-10.148	-143.9	-0.174076	-31.6571	-143.055	27.6865	-25.0706	-157.393	23.381	3.22737	-178.087	-31.9097	0.899508	-183.372	-30.1718	28.6331	-210.223	-20.8946	7.12343	
63	0.525	-233.435	10.2073	16.2066	-237.008	28.8452	-12.8375	-224.325	38.3599	-38.0901	-196.581	35.779	-46.4195	-214.855	-6.65942	-57.7646	-206.692	24.115	-66.7316	-208.673	31.3958	-33.6789	-193.685	-8.7399	-61.1469	-188.046	21.5063	-63.9902	-193.714	22.533	-23.759	-175.738	-9.28884	-47.25	-171.072	22.4563	-46.8959	-178.688	20.5736	-14.855	-161.904	-9.80751	-33.9896	-156.981	19.6418	-33.4805	-171.115	19.452	-4.94007	-188.761	-35.7075	2.14361	-185.851	-35.8436	34.2265	-220.707	-27.8942	10.4981	
64	0.533333	-241.144	6.15258	19.4971	-249.332	26.0206	-6.85324	-240.623	33.0999	-41.3514	-214.595	29.2974	-47.8668	-233.061	-14.7224	-54.8657	-226.88	16.0991	-64.8294	-226.347	26.7928	-36.0756	-216.324	-18.1374	-58.3248	-206.511	13.8173	-62.1629	-206.402	14.9594	-22.8698	-191.761	-16.7301	-50.0985	-187.396	13.4442	-50.6608	-195.352	14.8557	-17.1166	-179.826	-15.575	-36.7563	-175.444	12.4377	-38.8809	-177.626	14.9337	-8.29433	-198.601	-40.5289	5.30856	-195.571	-34.9696	35.3552	-230.361	-28.2133	17.7588	
65	0.541667	-249.648	10.4577	25.2775	-257.968	25.817	-6.54689	-253.446	34.0001	-31.6348	-231.339	26.7344	-49.6205	-254.815	-18.3419	-42.9868	-244.951	10.5644	-60.7367	-237.23	25.0211	-30.4533	-236.895	-21.673	-52.6943	-223.191	7.25406	-60.1589	-217.089	12.6011	-24.3063	-215.856	-20.0028	-46.8955	-205.825	8.48843	-48.4033	-206.488	10.1061	-15.8342	-198.005	-20.6769	-38.744	-189.045	4.34941	-40.3937	-195.828	9.81569	-10.6001	-212.911	-40.7199	11.3349	-204.987	-38.5602	36.7085	-239.785	-28.5989	26.3241	
66	0.55	-255.99	20.0183	30.5904	-264.331	36.3547	1.7445	-262.5	39.6564	-29.7481	-244	29.4846	-51.0102	-274.298	-11.097	-33.7666	-263.42	14.1937	-55.3555	-248.718	28.7197	-27.6895	-255.185	-19.5011	-46.5799	-244.982	8.02819	-58.1592	-230.908	12.1364	-18.0278	-234.126	-21.2227	-42.5637	-218.416	4.16288	-47.5107	-218.164	10.37	-15.8855	-215.269	-28.4772	-33.5691	-208.397	-2.09386	-40.9773	-202.704	3.321	-11.2242	-231.397	-40.0214	16.9816	-218.514	-34.9147	40.2971	-253.439	-21.2047	34.3581	
67	0.558333	-257.189	31.6268	34.2594	-261.264	46.7765	4.69771	-265.096	50.7383	-27.9374	-250.417	30.869	-46.8931	-286.113	1.83453	-26.9166	-273.888	23.922	-48.3655	-253.572	35.5751	-23.7959	-272.164	-10.2971	-37.5156	-253.986	12.7785	-51.6095	-237.587	15.6812	-17.4348	-253.002	-17.2382	-36.5808	-232.595	5.96183	-41.9443	-229.005	9.95982	-10.7094	-235.05	-26.2631	-34.1343	-221.116	-3.07784	-37.668	-219.438	0.463862	-7.03039	-249.155	-35.35	21.9729	-233.937	-29.5204	43.7345	-263.539	-8.55015	39.6772	
68	0.566667	-248.642	43.0113	35.8921	-251.643	57.277	4.03493	-256.405	57.8891	-23.9541	-252.707	38.8462	-48.2155	-293.427	24.7909	-22.579	-270.572	39.6229	-42.1973	-250.619	38.0979	-18.1252	-285.554	5.56958	-31.599	-262.868	19.9823	-48.3631	-242.349	23.7968	-14.9854	-269.572	-5.66078	-29.1615	-243.466	9.00297	-39.9979	-231.071	10.4984	-10.1499	-253.236	-22.8071	-29.2347	-235.392	-1.2262	-35.1646	-229.548	3.89823	-6.81893	-266.65	-22.1553	24.6314	-246.316	-25.0176	49.2016	-267.82	6.32336	43.0192	
69	0.575	-237.404	47.0531	35.0646	-241.223	61.102	0.757177	-247.45	64.7885	-28.1931	-250.899	44.4847	-48.741	-290.198	50.1742	-18.2282	-264.348	51.78	-37.7118	-247.086	44.0094	-13.0962	-288.734	26.0371	-29.3285	-264.159	30.7664	-45.6227	-241.228	27.3114	-11.0949	-276.856	6.70346	-26.5391	-250.491	12.155	-39.0668	-235.518	16.1442	-8.61573	-268.827	-10.1195	-25.7542	-245.007	3.42582	-32.1638	-232.739	3.9416	-5.81166	-275.212	-7.49424	32.8075	-252.495	-13.9192	54.5962	-266.202	23.1612	47.4096	
70	0.583333	-225.8	54.3563	31.2839	-228.743	62.046	-0.898471	-235.669	66.9077	-32.2094	-248.964	46.6467	-49.1601	-279.454	67.1432	-18.9979	-256.817	64.0564	-40.2787	-240.452	47.2474	-10.7249	-284.75	46.9104	-24.6268	-260.899	40.0403	-44.6198	-237.828	33.5732	-12.9591	-281.244	22.0447	-23.9993	-250.075	20.4808	-35.3542	-237.624	17.6586	-3.2952	-276.75	4.07946	-24.106	-250.832	3.2117	-31.0386	-239.192	7.37478	-0.473273	-281.384	11.0335	32.8899	-257.448	4.07265	55.4064	-259.709	38.3971	47.6765	
71	0.591667	-217.569	56.3694	24.245	-212.501	63.9805	-6.29631	-225.09	64.7041	-35.9449	-242.062	47.2906	-52.6567	-266.97	72.7789	-24.0572	-243.636	61.5567	-42.3953	-233.663	48.2983	-12.8956	-277.128	58.7283	-27.7903	-252.393	47.1206	-46.9602	-233.902	31.8289	-12.3609	-275.578	36.6483	-27.7004	-253.289	24.1363	-38.8266	-237.541	18.4579	-4.48211	-280.154	16.2152	-19.8606	-253.027	10.2992	-29.9649	-239.537	8.30928	-0.798834	-280.044	28.6489	30.3407	-260.711	14.6705	53.4831	-251.255	52.4581	43.3779	
72	0.6	-204.051	50.79	21.5568	-201.137	58.0955	-12.6888	-210.013	60.6378	-44.0766	-233.83	44.2443	-53.7438	-251.319	77.6329	-31.59	-233.486	58.815	-49.9951	-222.498	45.719	-21.3273	-265.274	62.0307	-37.055	-244.324	41.2159	-50.6736	-230.782	27.5828	-18.553	-269.287	41.4733	-32.3099	-245.376	23.2231	-40.766	-232.973	19.1617	-8.09478	-274.252	27.5322	-23.8383	-252.437	11.0344	-33.3367	-240.779	3.49403	-3.82816	-274.847	37.9008	28.218	-256.603	22.5437	52.0161	-242.285	53.83	38.6814	
73	0.608333	-196.529	43.1397	15.8622	-193.773	48.0071	-19.948	-202.623	46.6789	-52.2713	-222.506	33.2502	-62.7966	-233.372	74.769	-39.5689	-216.634	51.2999	-57.2905	-215.11	36.8876	-25.3092	-248.862	61.7936	-43.933	-234.575	37.5502	-58.5321	-224.369	21.4607	-20.4185	-258.425	43.5359	-38.0118	-237.31	18.6005	-43.7825	-229.9	14.6213	-10.8394	-265.461	27.4119	-34.0817	-247.871	5.85503	-35.7875	-237.844	6.88619	-5.79082	-264.132	47.2878	17.6239	-257.32	27.7202	41.7947	-233.335	55.8931	28.816	
